<svg xmlns="http://www.w3.org/2000/svg" version="1.1" xmlns:xlink="http://www.w3.org/1999/xlink" xmlns:svgjs="http://svgjs.dev/svgjs" width="2000" height="2000" viewBox="0 0 2000 2000"><g transform="matrix(1,0,0,1,-0.28443113772425477,-0.28443113772459583)"><svg viewBox="0 0 334 334" data-background-color="#f7f7ff" preserveAspectRatio="xMidYMid meet" height="2000" width="2000" xmlns="http://www.w3.org/2000/svg" xmlns:xlink="http://www.w3.org/1999/xlink"><g id="tight-bounds" transform="matrix(1,0,0,1,0.04749999999998522,0.04750000000001364)"><svg viewBox="0 0 333.90454557049503 333.90454557049503" height="333.90454557049503" width="333.90454557049503"><g><svg></svg></g><g><svg viewBox="0 0 333.90454557049503 333.90454557049503" height="333.90454557049503" width="333.90454557049503"><g><path d="M0 166.952c0-92.205 74.747-166.952 166.952-166.952 92.205 0 166.952 74.747 166.953 166.952 0 92.205-74.747 166.952-166.953 166.953-92.205 0-166.952-74.747-166.952-166.953zM166.952 316.63c82.665 0 149.677-67.013 149.678-149.678 0-82.665-67.013-149.677-149.678-149.677-82.665 0-149.677 67.013-149.677 149.677 0 82.665 67.013 149.677 149.677 149.678z" data-fill-palette-color="tertiary" fill="#ffff33" stroke="transparent"></path><ellipse rx="160.27418187383762" ry="160.27418187383762" cx="166.95227278524752" cy="166.95227278524752" fill="#ffff33" stroke="transparent" stroke-width="0" fill-opacity="1" data-fill-palette-color="tertiary"></ellipse></g><g transform="matrix(1,0,0,1,82.14999655659594,71.17305217166896)"><svg viewBox="0 0 169.60455245730316 191.55844122715712" height="191.55844122715712" width="169.60455245730316"><g><svg viewBox="0 0 169.60455245730316 191.55844122715712" height="191.55844122715712" width="169.60455245730316"><g><svg viewBox="0 0 169.60455245730316 191.55844122715712" height="191.55844122715712" width="169.60455245730316"><g><svg viewBox="0 0 169.60455245730316 191.55844122715712" height="191.55844122715712" width="169.60455245730316"><g id="textblocktransform"><svg viewBox="0 0 169.60455245730316 191.55844122715712" height="191.55844122715712" width="169.60455245730316" id="textblock"><g><svg viewBox="0 0 169.60455245730316 191.55844122715712" height="191.55844122715712" width="169.60455245730316"><g transform="matrix(1,0,0,1,0,0)"><svg width="169.60455245730316" viewBox="0.78 -32.15 28.86 32.59" height="191.55844122715712" data-palette-color="#333366"><path d="M14.43-20.85L14.43-16.38Q14.53-16.31 14.99-16.31 15.45-16.31 15.7-16.67 15.94-17.04 15.94-17.87L15.94-17.87 15.94-19.73Q15.94-20.61 15.73-20.98 15.53-21.36 15.05-21.36 14.58-21.36 14.4-21.26L14.4-21.26Q14.43-21.14 14.43-20.85L14.43-20.85ZM15.04-5.35L15.04-5.35 15.04-1.61Q13.96-0.71 12.01-0.13 10.06 0.44 7.93 0.44L7.93 0.44Q4.91 0.44 2.98-0.73L2.98-0.73Q0.78-2.08 0.78-4.61L0.78-4.61 0.78-27.81Q0.78-28.59 1.84-29.37 2.91-30.15 4.79-30.79L4.79-30.79Q8.81-32.15 13.99-32.15L13.99-32.15Q21.14-32.15 25.39-28.59 29.64-25.02 29.64-19.01 29.64-12.99 25.81-9.64L25.81-9.64Q22.12-6.47 15.58-6.47L15.58-6.47Q14.09-6.47 12.39-6.82 10.69-7.18 10.11-7.45L10.11-7.45Q9.91-7.25 9.91-6.91L9.91-6.91Q9.91-5.66 15.04-5.35Z" opacity="1" transform="matrix(1,0,0,1,0,0)" fill="#333366" class="wordmark-text-0" data-fill-palette-color="quaternary" id="text-0"></path></svg></g></svg></g></svg></g></svg></g><g></g></svg></g></svg></g></svg></g></svg></g><defs></defs></svg><rect width="333.90454557049503" height="333.90454557049503" fill="none" stroke="none" visibility="hidden"></rect></g></svg></g></svg>