<?xml version="1.0" encoding="UTF-8"?>

<svg xmlns="http://www.w3.org/2000/svg" viewBox="0 0 1920 1920" height="512px" width="512px">
    <g>
        <circle cx="960" cy="960" r="960" fill="#ffff33" />
        <path fill="#333366"
            d="M932.6,784.4v157.3c37.6,10.9,54.2-10.1,53.1-52.4l0,0c-1.2-24.6,4.3-91.3-7.4-109.4
		c-6.1-16.5-36.2-15.2-46.8-9.8l0,0C932.2,772.8,932.6,777.6,932.6,784.4L932.6,784.4L932.6,784.4z M954,1329.8L954,1329.8v131.6 c-60.2,49.5-166.2,72.6-250.2,72.1c-70.8,0-128.9-13.7-174.2-41.2l0,0c-51.6-31.7-77.4-77.2-77.4-136.5l0,0V539.4 c8.2-57.1,80.6-81.3,141.1-104.9c94.3-31.9,202.2-47.9,323.8-47.9c302.4-3.3,551.3,155.8,550.7,462.4 c0,141.2-44.9,251.1-134.8,329.7l0,0c-86.6,74.4-206.6,111.6-360,111.6c-49.8,1.7-153.4-17.2-192.5-34.5l0,0c-4.7,4.7-7,11-7,19 l0,0C773.5,1304.2,833.7,1322.5,954,1329.8L954,1329.8z" />
    </g>
</svg>