<svg version="1.0" xmlns="http://www.w3.org/2000/svg"
 width="240.000000pt" height="240.000000pt" viewBox="0 0 240.000000 240.000000"
 preserveAspectRatio="xMidYMid meet">
<g transform="translate(0.000000,240.000000) scale(0.100000,-0.100000)"
stroke="none">
<path d="M1075 2389 c-265 -28 -530 -155 -719 -345 -356 -355 -451 -900 -236
-1351 186 -390 541 -639 975 -683 339 -34 701 98 949 346 356 355 451 900 236
1351 -185 388 -541 638 -971 683 -111 11 -119 11 -234 -1z m-185 -679 l0 -110
105 0 105 0 0 -45 0 -45 -260 0 -260 0 0 45 0 45 105 0 105 0 0 110 0 110 50
0 50 0 0 -110z m938 -147 l-3 -48 -260 0 -260 0 -3 48 -3 47 266 0 266 0 -3
-47z m-940 -195 l-3 -73 -47 -3 -48 -3 0 75 0 76 50 0 51 0 -3 -72z m724 -255
c38 -34 11 -103 -40 -103 -53 0 -83 68 -46 104 20 21 63 20 86 -1z m-862 -88
l85 -85 87 87 88 87 35 -34 35 -34 -197 -198 c-109 -109 -203 -198 -209 -198
-5 0 -23 14 -39 30 l-29 31 82 82 82 82 -87 87 -87 88 29 30 c16 16 31 30 35
30 3 0 43 -38 90 -85z m1080 -150 l0 -45 -265 0 -265 0 0 45 0 45 265 0 265 0
0 -45z m-812 -118 l62 -63 -33 -32 -33 -32 -64 65 -64 65 29 30 c16 16 31 30
35 30 3 0 34 -28 68 -63z m592 -27 c40 -40 16 -100 -40 -100 -36 0 -60 23 -60
58 0 31 9 47 30 55 29 11 50 7 70 -13z m-890 -74 c0 -3 -4 -8 -10 -11 -5 -3
-10 -1 -10 4 0 6 5 11 10 11 6 0 10 -2 10 -4z"/>
</g>
</svg>
