<?xml version="1.0" encoding="UTF-8"?>
<svg version="1.1" xmlns="http://www.w3.org/2000/svg" viewBox="0 0 512 512" height="100%" width="100%"
    style="margin:0.25rem">
    <g fill="currentColor">
        <path class="particle"
            d="M0 0 C17.94296967 14.26236051 30.36649022 33.35725686 33.34716797 56.41650391 C35.43884006 77.26207954 32.05278147 95.46036795 21.5625 113.5625 C21.0675 114.42359375 20.5725 115.2846875 20.0625 116.171875 C8.95416712 133.97045382 -10.01391727 147.48523551 -30.4375 152.5625 C-31.17871094 152.76488281 -31.91992188 152.96726563 -32.68359375 153.17578125 C-53.58037168 157.96802205 -77.53422079 154.54937673 -95.81982422 143.45532227 C-115.62130611 130.91938276 -130.40868089 112.53364765 -136.046875 89.51953125 C-137.5663934 82.71475242 -137.93926912 76.2056261 -137.875 69.25 C-137.86597656 68.07010498 -137.85695312 66.89020996 -137.84765625 65.67456055 C-137.39062044 42.55140498 -127.6929812 22.2474977 -111.33520508 5.9675293 C-80.80182062 -23.05164758 -33.49575325 -24.28335977 0 0 Z "
            transform="translate(201.4375,80.4375)" />
        <path class="particle"
            d="M0 0 C14.66593153 10.19568513 25.60840641 23.74932626 29.74780273 41.46484375 C31.86603529 54.29763126 31.44584138 68.79991362 26.125 80.75 C25.76277344 81.62269531 25.40054688 82.49539063 25.02734375 83.39453125 C17.33536706 100.36902897 3.07751411 111.05081733 -13.734375 117.91796875 C-30.02500275 122.93228047 -49.3872321 120.84818754 -64.375 113.25 C-80.79373216 104.34772371 -91.48385123 89.95575147 -96.98828125 72.1484375 C-100.09059644 59.05712927 -99.35177869 43.05030624 -93.875 30.75 C-93.51277344 29.87730469 -93.15054688 29.00460937 -92.77734375 28.10546875 C-85.8549626 12.82929883 -73.23462165 1.78063924 -57.87109375 -4.47265625 C-38.93392049 -11.50790437 -17.48941603 -10.43527048 0 0 Z "
            transform="translate(289.875,328.25)" />
        <path class="particle"
            d="M0 0 C8.2056933 6.85848992 13.78713429 15.21776645 16.09375 25.75 C16.97248891 40.28520594 15.64792044 52.10117921 6.09375 63.75 C-1.25908679 71.83373507 -11.19650197 77.27834483 -22.2265625 77.953125 C-36.48726375 78.12882152 -47.4215988 74.9412875 -58.15625 65.125 C-66.54387798 56.2449809 -70.47058827 44.4925403 -70.15234375 32.41796875 C-69.03310142 20.28396064 -64.23043273 10.05669324 -55.38671875 1.640625 C-38.89513837 -10.92933548 -17.07522577 -12.37335201 0 0 Z "
            transform="translate(431.90625,157.25)" />
        <path class="particle"
            d="M0 0 C5.65842186 3.35748683 9.01834623 8.14105438 11.0546875 14.30859375 C12.61328751 20.65089687 11.70385218 25.48921562 8.90234375 31.26171875 C5.99765338 35.84316916 1.60911022 39.38856832 -3.4375 41.375 C-10.81953986 42.2386623 -17.72157656 42.50233474 -23.82421875 37.86328125 C-29.33731269 32.77735197 -32.05274241 28.22257589 -32.8125 20.625 C-32.62001392 14.71454509 -30.68736936 8.96608178 -26.7890625 4.4765625 C-19.38125262 -2.15488303 -9.29654974 -4.24177174 0 0 Z "
            transform="translate(138.4375,278.625)" />
        <path class="particle"
            d="M0 0 C5.65842186 3.35748683 9.01834623 8.14105438 11.0546875 14.30859375 C12.61328751 20.65089687 11.70385218 25.48921562 8.90234375 31.26171875 C5.99765338 35.84316916 1.60911022 39.38856832 -3.4375 41.375 C-10.81953986 42.2386623 -17.72157656 42.50233474 -23.82421875 37.86328125 C-29.33731269 32.77735197 -32.05274241 28.22257589 -32.8125 20.625 C-32.62001392 14.71454509 -30.68736936 8.96608178 -26.7890625 4.4765625 C-19.38125262 -2.15488303 -9.29654974 -4.24177174 0 0 Z "
            transform="translate(330.4375,86.625)" />
        <path class="particle"
            d="M0 0 C1.19367188 -0.01675781 2.38734375 -0.03351563 3.6171875 -0.05078125 C9.96570516 0.6066933 14.06990363 3.5104122 18.125 8.3125 C22.30891007 14.29535512 23.14255507 20.12667296 22.125 27.3125 C20.3277216 33.49130916 16.46704831 37.82517532 11.125 41.3125 C5.04602453 44.19357795 -1.21647405 44.47163693 -7.63671875 42.4375 C-13.51070569 39.76830414 -16.67263242 36.89081771 -19.875 31.3125 C-21.87454039 25.31387882 -22.12968158 17.7225267 -19.93359375 11.75390625 C-15.19927607 3.9029531 -9.11061515 0.02938908 0 0 Z "
            transform="translate(404.875,319.6875)" />
    </g>
</svg>