<?xml version="1.0" encoding="UTF-8"?>
<svg version="1.1" xmlns="http://www.w3.org/2000/svg" viewBox="0 0 512 512" width="100%" height="100%" id="translator">
    <g fill="currentColor">
        <path
            d="M0 0 C1.06185515 -0.00679667 1.06185515 -0.00679667 2.14516193 -0.01373065 C4.50551807 -0.02634065 6.86564245 -0.02475649 9.22602844 -0.02310181 C10.92333267 -0.02908931 12.62063418 -0.03589536 14.31793213 -0.04345703 C18.92148899 -0.06110466 23.52497146 -0.06581197 28.12855887 -0.0670886 C31.00817684 -0.0685118 33.88777601 -0.07278467 36.7673893 -0.07808304 C46.8236015 -0.09658134 56.87976073 -0.10475416 66.93598938 -0.10317993 C76.29270148 -0.10197956 85.64918252 -0.12306201 95.00583619 -0.15466726 C103.05193336 -0.18087183 111.09795528 -0.19154543 119.14409477 -0.19026911 C123.94382942 -0.18976058 128.74335881 -0.19538313 133.54305077 -0.21662521 C138.06166383 -0.23607739 142.57987736 -0.23608464 147.09850502 -0.22159195 C148.74999199 -0.21951117 150.40150442 -0.22416083 152.052948 -0.23631287 C167.33562413 -0.34141768 179.16171113 2.91808199 190.4967804 13.64242554 C200.96676138 24.76526908 203.17737421 38.80795268 204.93617249 53.53759766 C205.12424583 55.0384053 205.31334781 56.53908433 205.5033772 58.03964555 C206.01794037 62.12655242 206.51798258 66.21511961 207.01547742 70.30413437 C207.55631828 74.72784923 208.11081347 79.14985568 208.6635437 83.57209778 C209.74228561 92.22028611 210.80849897 100.8699743 211.87036124 109.52024962 C213.10842064 119.60223364 214.3587043 129.68269043 215.60939232 139.76311426 C217.84087738 157.75228666 220.06089758 175.74285541 222.27461243 193.73422241 C224.42092274 211.17772222 226.57594937 228.62011662 228.74043274 246.06137085 C231.4767685 268.11072732 234.20541358 290.16102201 236.9276927 312.21211834 C237.79473992 319.23355145 238.66452176 326.25464274 239.53522491 333.27562332 C240.5964101 341.8338226 241.65256529 350.3926259 242.70247379 358.95221616 C243.2378944 363.31651371 243.77539504 367.68052682 244.31871986 372.04384804 C244.81657369 376.04258885 245.30816076 380.04204983 245.79487851 384.04216091 C245.97144123 385.48437101 246.15022476 386.92631145 246.3315284 388.36793323 C249.02779951 409.83790652 249.02779951 409.83790652 245.9342804 415.70492554 C245.2124054 416.55055054 244.4905304 417.39617554 243.7467804 418.26742554 C243.40676247 418.96980095 243.06674454 419.67217636 242.71642303 420.39583588 C239.40135627 423.5458716 235.44007926 422.81669695 231.04499817 422.77536011 C229.53371361 422.78472005 229.53371361 422.78472005 227.99189806 422.79426908 C224.59941062 422.81028524 221.20763315 422.79756052 217.81513977 422.78500366 C215.389222 422.7904212 212.96330751 422.79754178 210.53739929 422.8062439 C204.62045834 422.82262958 198.70370318 422.82017492 192.7867673 422.80859333 C187.97427284 422.79956372 183.16183522 422.79833298 178.34933472 422.8026886 C177.32227397 422.803608 177.32227397 422.803608 176.27446452 422.80454597 C174.88343615 422.80582489 173.49240779 422.80712174 172.10137945 422.80843633 C159.04556648 422.81985232 145.98986569 422.80671609 132.93407112 422.78523487 C121.7456079 422.76739489 110.55731086 422.77044032 99.36885071 422.78890991 C86.37251122 422.81035392 73.37627043 422.81871992 60.37991571 422.80646086 C58.99152789 422.80518671 57.60314005 422.80392923 56.2147522 422.8026886 C55.53168565 422.8020715 54.8486191 422.80145439 54.14485356 422.80081859 C49.34544621 422.79737386 44.54610171 422.80317573 39.7467041 422.81260681 C33.27226151 422.82504956 26.79805769 422.8160891 20.32364273 422.79302979 C17.95135643 422.78775557 15.5790437 422.7892343 13.20676804 422.79808044 C9.95897186 422.80907113 6.71216552 422.79522842 3.46443176 422.77536011 C2.06813042 422.78874444 2.06813042 422.78874444 0.64362097 422.80239916 C-11.06472518 422.66423308 -20.55555806 417.91000527 -29.2532196 410.26742554 C-36.78536044 402.26015893 -42.4956354 392.24892035 -42.51048851 381.06255054 C-42.5169374 379.8312327 -42.52338629 378.59991485 -42.53003061 377.33128434 C-42.52708862 375.97306834 -42.5239532 374.61485274 -42.52064514 373.25663757 C-42.52438296 371.80736673 -42.52898501 370.35809789 -42.53437579 368.90883225 C-42.5466052 364.93024795 -42.54634539 360.95174775 -42.54398704 356.97314894 C-42.54357885 352.68055719 -42.55461828 348.38799239 -42.56410217 344.09541321 C-42.5807134 335.68636853 -42.5862118 327.2773519 -42.58732693 318.86829219 C-42.58827745 312.03166388 -42.59238797 305.19504481 -42.59872818 298.35841942 C-42.6163418 278.97077591 -42.62556699 259.58315454 -42.62406723 240.19550297 C-42.62398732 239.15036291 -42.62390741 238.10522284 -42.62382507 237.02841187 C-42.62374331 235.98199389 -42.62366155 234.93557591 -42.62357731 233.8574483 C-42.62276463 216.90352388 -42.64189749 199.94968834 -42.67010181 182.99578962 C-42.69884035 165.58317914 -42.71264153 148.17061199 -42.71091425 130.75797719 C-42.71025063 120.98395643 -42.71573055 111.21002882 -42.73727036 101.43602943 C-42.75549502 93.11300994 -42.75981901 84.79012582 -42.74625151 76.467095 C-42.73972803 72.22266228 -42.73958207 67.97848918 -42.75695801 63.73408127 C-42.77272167 59.84338067 -42.76979186 55.95314481 -42.75238974 52.06245532 C-42.74932703 50.66002353 -42.75292467 49.25755677 -42.76410989 47.85516623 C-42.86747872 33.96761933 -39.47788548 23.76558511 -30.2532196 13.26742554 C-21.78640135 5.30300139 -11.74566526 0.03116223 0 0 Z M67.9967804 111.45492554 C62.46891853 118.36475287 61.42340113 126.72235731 59.74409485 135.1980896 C59.45856762 136.60995441 59.17239708 138.02168924 58.88563538 139.43330383 C58.11200994 143.25231213 57.34815084 147.0732112 56.5866549 150.89465427 C55.94839766 154.09321237 55.30545336 157.29082104 54.66255921 160.48844981 C53.14477809 168.03821498 51.63503068 175.58955603 50.13032532 183.14193726 C48.58210128 190.91203131 47.02055639 198.67936252 45.45235091 206.44544625 C44.10277717 213.13121997 42.76148218 219.81861848 41.42672509 226.50736594 C40.63106624 230.49418197 39.83239443 234.48033036 39.02576637 238.46494293 C38.26684006 242.21580403 37.51835505 245.96860628 36.77754211 249.7230854 C36.50547261 251.09310573 36.22987071 252.46243055 35.95029259 253.83093834 C32.52046647 267.93146803 32.52046647 267.93146803 35.9967804 281.32992554 C38.50483715 284.49596015 41.09772244 286.03340081 45.1139679 286.60336304 C50.84143772 286.69257596 54.31125439 286.2702173 58.7467804 282.26742554 C62.44438807 277.49142392 63.10277841 271.84727476 64.22724915 266.06039429 C64.44496475 264.97986282 64.66268036 263.89933136 64.88699341 262.78605652 C65.57838426 259.34406789 66.25649072 255.89961556 66.9342804 252.45492554 C67.40150509 250.11686003 67.86959408 247.77896707 68.33857727 245.44125366 C69.4863076 239.71885306 70.61602953 233.99331034 71.7467804 228.26742554 C85.9367804 228.26742554 100.1267804 228.26742554 114.7467804 228.26742554 C115.42224915 231.73500366 116.0977179 235.20258179 116.7936554 238.77523804 C117.45904181 242.14177644 118.12905269 245.50736352 118.79951477 248.87289429 C119.26204126 251.20755179 119.71977431 253.54316436 120.17256165 255.87973022 C120.82525238 259.24337762 121.49525822 262.60318281 122.1686554 265.96273804 C122.36674805 267.00358551 122.5648407 268.04443298 122.76893616 269.11682129 C124.13304137 275.80794632 125.62562788 280.51346743 130.8717804 285.14242554 C135.19026682 286.83226805 139.17348559 286.92703536 143.7467804 286.26742554 C148.15480665 284.10348538 150.97817265 281.88545686 152.7467804 277.26742554 C153.54855747 268.58458236 151.86188047 260.28541737 150.13227844 251.81918335 C149.85055301 250.40054013 149.56973585 248.98171629 149.28974915 247.56272888 C148.53277306 243.74079116 147.76267602 239.92161049 146.98963141 236.10289478 C146.17953616 232.09167812 145.38031825 228.0782927 144.57949829 224.06521606 C143.23419982 217.33245458 141.88042971 210.60143959 140.5214386 203.87142944 C138.95292555 196.10333607 137.39742644 188.33272385 135.84894341 180.56061482 C134.35471372 173.06217248 132.85176077 165.56550479 131.34469032 158.06963348 C130.70524983 154.88854334 130.06875837 151.70688451 129.43465233 148.52472687 C128.68741795 144.77708892 127.93250412 141.03107657 127.1717453 137.28616142 C126.89459711 135.91572902 126.62002358 134.54477289 126.34828377 133.17325783 C123.9709046 119.70621887 123.9709046 119.70621887 115.7467804 109.26742554 C110.90011674 107.58182117 106.64339653 107.01127845 101.5280304 107.00180054 C100.86645935 106.99988708 100.20488831 106.99797363 99.52326965 106.9960022 C98.13504146 106.99465106 96.74680017 106.99827196 95.3585968 107.00668335 C93.25202138 107.01739888 91.14629852 107.00675203 89.03974915 106.99398804 C87.68167438 106.99530982 86.32360013 106.99787261 84.9655304 107.00180054 C83.74801086 107.0040564 82.53049133 107.00631226 81.27607727 107.00863647 C76.12779704 107.38613904 72.06906685 108.21560677 67.9967804 111.45492554 Z "
            transform="translate(42.25321960449219,-0.267425537109375)" />
        <path
            d="M0 0 C25.36521138 -0.09352666 50.73039684 -0.1640201 76.09574604 -0.20724869 C87.87386662 -0.22785581 99.65187992 -0.25594114 111.42993164 -0.30175781 C121.69814429 -0.34168209 131.96627923 -0.36744625 142.23456734 -0.37635398 C147.66933228 -0.38155922 153.10387494 -0.39375507 158.5385685 -0.42292023 C163.65950555 -0.45017758 168.78012988 -0.45842415 173.90113258 -0.45243073 C175.77515871 -0.45352635 177.64919588 -0.46141845 179.52315903 -0.4768219 C195.43112871 -0.60110842 207.61288683 1.97131551 219.625 13.0625 C227.0359056 20.71659594 232.24292926 31.43581659 232.25726891 42.17364025 C232.2637178 43.39799131 232.27016669 44.62234236 232.276811 45.88379496 C232.27386902 47.23415047 232.27073361 48.58450557 232.26742554 49.93486023 C232.27116339 51.37588149 232.27576546 52.81690072 232.28115618 54.25791675 C232.29338513 58.21369803 232.29312584 62.16939474 232.29076743 66.12519062 C232.29035923 70.39324233 232.30139879 74.66126695 232.31088257 78.92930603 C232.32749354 87.29022379 232.33299218 95.65111336 232.33410732 104.01204624 C232.33505786 110.80958228 232.33916844 117.60710901 232.34550858 124.40464211 C232.36312214 143.68161058 232.3723474 162.9585568 232.37084763 182.23553338 C232.37076772 183.27469945 232.3706878 184.31386553 232.37060547 185.38452148 C232.37052371 186.42495823 232.37044195 187.46539498 232.37035771 188.53736011 C232.36954503 205.39428686 232.3886778 222.2511242 232.4168822 239.1080251 C232.44562112 256.42119453 232.4594219 273.73432037 232.45769465 291.04751426 C232.45703104 300.76564389 232.46251041 310.48367982 232.48405075 320.20178795 C232.50227592 328.47723054 232.506599 336.75253697 232.4930319 345.02799096 C232.48650867 349.24812102 232.48636156 353.46798998 232.5037384 357.68809509 C232.51950318 361.55659152 232.51657115 365.42462056 232.49917014 369.29310582 C232.49610767 370.68746231 232.49970415 372.08185397 232.51089029 373.47616895 C232.61463908 387.33348046 229.20288667 397.52662632 220 408 C214.97994372 412.72218208 209.38381745 416.39461222 203 419 C202.16723478 419.34203901 201.33446957 419.68407803 200.47646904 420.03648186 C196.02123636 421.27126849 191.95700811 421.27038809 187.35696411 421.24050903 C185.90982208 421.24307231 185.90982208 421.24307231 184.43344486 421.24568737 C181.20441475 421.2489786 177.97559296 421.23798447 174.74658203 421.22705078 C172.43045558 421.22648659 170.11432876 421.22680338 167.79820251 421.22793579 C161.51153692 421.22850999 155.22494753 421.21674472 148.93829966 421.20278788 C142.36795849 421.19029177 135.79761562 421.1891109 129.2272644 421.18673706 C118.19967324 421.18155877 107.17210878 421.16873021 96.14453125 421.15087891 C84.78743632 421.13251333 73.43034898 421.11836014 62.07324219 421.10986328 C61.37287457 421.10933783 60.67250695 421.10881239 59.95091607 421.10827102 C56.43728318 421.10566089 52.92365023 421.10313349 49.41001725 421.10064721 C20.27332665 421.07992286 -8.8633363 421.0445555 -38 421 C-37.06221798 419.73271135 -36.12205098 418.46718739 -35.1809082 417.20239258 C-34.65761429 416.4974617 -34.13432037 415.79253082 -33.59516907 415.0662384 C-31.30310695 412.09730748 -28.77482549 409.39803146 -26.1875 406.6875 C-22.4715894 402.73303711 -18.89619909 398.73751617 -15.5 394.5 C-11.68005989 389.73891522 -7.61061181 385.28726975 -3.44140625 380.8359375 C0.45886878 376.64785592 4.07132009 372.28131233 7.65234375 367.81640625 C10.34867272 364.58170877 13.18495948 361.5102798 16.0625 358.4375 C30.04294658 343.42862698 38.87251928 330.63122477 38.15408707 309.62745953 C37.5648599 299.58008458 36.06451319 289.58136268 34.78736639 279.60192394 C34.31432886 275.88924275 33.85214018 272.17520847 33.38858032 268.46133423 C32.5858925 262.04218671 31.77653552 255.62390931 30.96255493 249.20618439 C29.78534254 239.92426373 28.61881629 230.64102394 27.45487869 221.35743043 C25.56522144 206.28752123 23.66760297 191.21862609 21.76464844 176.15039062 C19.91815716 161.5290716 18.07452341 146.90739789 16.23535156 132.28515625 C16.12184573 131.38274666 16.0083399 130.48033706 15.8913945 129.55058172 C14.65283245 119.70302019 13.41495255 109.85537297 12.17738342 100.00768661 C11.84942175 97.39809236 11.52145723 94.78849846 11.19348896 92.17890504 C10.97735487 90.4591172 10.76123226 88.73932793 10.54512131 87.01953718 C9.16972989 76.07470755 7.79135161 65.13025974 6.40977478 54.1862092 C5.7140852 48.67498867 5.01962101 43.16361397 4.32554793 37.65218964 C3.77607016 33.28968373 3.2250434 28.92737732 2.67281383 24.56521894 C2.26127737 21.31061232 1.85213047 18.05570522 1.44262695 14.80084229 C1.2208429 13.05502534 1.2208429 13.05502534 0.99457836 11.27393937 C0.86220933 10.21826445 0.7298403 9.16258954 0.59346008 8.07492447 C0.4780251 7.16071488 0.36259012 6.24650528 0.24365711 5.30459237 C0 3 0 3 0 0 Z M115 111 C110.87519146 116.54715632 110.85408918 122.10755322 110.9375 128.8125 C110.94201172 129.50537109 110.94652344 130.19824219 110.95117188 130.91210938 C110.96286844 132.60811068 110.98080076 134.30406703 111 136 C110.45178085 135.99555878 109.90356171 135.99111755 109.33872986 135.98654175 C103.61199561 135.94215564 97.88531058 135.91207032 92.15844727 135.89013672 C90.02366143 135.88010437 87.88888926 135.86647536 85.75415039 135.84912109 C82.67851381 135.8247511 79.60305957 135.813489 76.52734375 135.8046875 C75.57915268 135.79436493 74.63096161 135.78404236 73.65403748 135.77340698 C66.99760146 135.77229022 61.41912224 135.90342739 56.1875 140.4375 C52.24921137 145.05092383 51.5545412 147.59018413 51.68359375 153.4921875 C52.2758843 158.18663855 54.63177536 160.83298487 58.125 163.8125 C62.31380717 165.54265948 66.50517633 165.74689342 71 166 C71.10304443 166.55107422 71.20608887 167.10214844 71.31225586 167.66992188 C72.45181837 173.30253114 74.16361743 178.28875558 76.5625 183.5 C76.91183594 184.26973145 77.26117188 185.03946289 77.62109375 185.83251953 C85.10040405 202.08742129 93.72530732 217.04756781 105 231 C102.35546404 234.49369888 99.67638724 237.27591573 96.25 240 C95.29351562 240.76699219 94.33703125 241.53398437 93.3515625 242.32421875 C92.55927246 242.95529541 92.55927246 242.95529541 91.75097656 243.59912109 C88.35732154 246.31423438 84.99479806 249.06788207 81.625 251.8125 C80.28418415 252.90274969 78.94305243 253.99261107 77.6015625 255.08203125 C76.98313477 255.58686035 76.36470703 256.09168945 75.72753906 256.61181641 C74.22602155 257.81837782 72.68992467 258.98165919 71.1484375 260.13671875 C68.22975096 262.66801599 67.20381421 264.56382078 66.6640625 268.3671875 C66.57484957 274.09465733 66.99720824 277.56447399 71 282 C74.820898 285.37138059 78.52114651 285.38005895 83.40234375 285.49609375 C89.68140842 284.29693403 94.8459922 278.79756779 99.6875 274.8125 C100.38794434 274.23951172 101.08838867 273.66652344 101.81005859 273.07617188 C103.2182221 271.9238328 104.62546672 270.77036983 106.03173828 269.61572266 C107.77791931 268.1823034 109.52670359 266.75218547 111.27734375 265.32421875 C115.87224126 261.57392517 120.45369448 257.80906678 125 254 C128.90759134 255.33213341 131.29758259 256.95035434 134.25 259.8125 C140.75497806 265.84865081 147.82268194 271.11327335 154.91503906 276.43505859 C156.35729621 277.51759587 157.79656178 278.6041261 159.23339844 279.69384766 C159.94786133 280.23444824 160.66232422 280.77504883 161.3984375 281.33203125 C162.04216309 281.82034424 162.68588867 282.30865723 163.34912109 282.81176758 C167.55713913 285.84051998 171.98198885 285.55498741 177 285 C181.40608743 282.83701163 184.1987497 280.60319521 186 276 C186.67089978 271.05522016 186.78305138 267.42607474 184.33984375 262.9765625 C181.84630217 259.80447789 179.3728537 257.69776911 176.125 255.3125 C174.96683864 254.448733 173.80930899 253.58411848 172.65234375 252.71875 C172.05405762 252.2753125 171.45577148 251.831875 170.83935547 251.375 C167.75238088 249.06734923 164.71833202 246.69316437 161.6875 244.3125 C161.10162109 243.85294922 160.51574219 243.39339844 159.91210938 242.91992188 C155.47937885 239.42304593 151.1768173 235.80064431 147 232 C149.3947004 228.30817022 151.92113141 224.77001686 154.5625 221.25 C173.41899199 195.59817901 173.41899199 195.59817901 182 166 C182.65226563 165.97421875 183.30453125 165.9484375 183.9765625 165.921875 C190.87324928 165.47430241 195.14874934 164.23141742 199.875 158.875 C201.56484251 154.55651358 201.65960983 150.5732948 201 146 C198.8065619 141.53188534 196.51294863 139.09136644 192 137 C188.68387369 136.20337093 185.61486529 135.87709404 182.2097168 135.88647461 C181.28913986 135.88655014 180.36856293 135.88662567 179.42008972 135.88670349 C178.4397023 135.89186478 177.45931488 135.89702606 176.44921875 135.90234375 C175.43527542 135.9037587 174.42133209 135.90517365 173.37666321 135.90663147 C170.14691179 135.91221672 166.91723038 135.92476655 163.6875 135.9375 C161.49414163 135.9425169 159.30078217 135.94707948 157.10742188 135.95117188 C151.73825747 135.96218132 146.36913374 135.9789048 141 136 C141.02320313 134.99839844 141.04640625 133.99679688 141.0703125 132.96484375 C141.08908789 131.62240336 141.10728618 130.27995482 141.125 128.9375 C141.14820313 127.62652344 141.17140625 126.31554687 141.1953125 124.96484375 C140.92362239 119.44953455 140.21645565 115.40360267 136.5625 111.1875 C131.94907617 107.24921137 129.40981587 106.5545412 123.5078125 106.68359375 C119.80778087 107.15042017 117.74186303 108.5256358 115 111 Z "
            transform="translate(280,91)" />
        <path
            d="M0 0 C26.4 0 52.8 0 80 0 C76.12523749 4.52055627 72.2420687 8.96290728 68.1875 13.3125 C63.84231498 17.99611389 59.54152404 22.71497228 55.27734375 27.47265625 C52.70190085 30.33082358 50.10298491 33.1669567 47.5 36 C43.98991408 39.82422051 40.48502674 43.65289256 37 47.5 C35.948125 48.66015625 35.948125 48.66015625 34.875 49.84375 C33.14489605 51.83336954 31.55018297 53.86849842 30 56 C19.24154412 53.51727941 12.17582899 44.62685904 6.5625 35.71875 C0.95899591 25.17882564 0 11.76847679 0 0 Z "
            transform="translate(175,452)" />
        <path
            d="M0 0 C16.83 0 33.66 0 51 0 C48.9457896 6.16263121 46.96157036 11.55124702 43.9375 17.1875 C43.35911377 18.27454224 43.35911377 18.27454224 42.76904297 19.38354492 C38.77789696 26.70117916 34.02687896 33.36706044 29 40 C28.40960938 40.78761719 27.81921875 41.57523437 27.2109375 42.38671875 C26.81132812 42.91910156 26.41171875 43.45148438 26 44 C21.88286985 42.62762328 20.56413911 39.80752364 18.3125 36.3125 C17.87333252 35.63985107 17.43416504 34.96720215 16.98168945 34.27416992 C0 8.00403422 0 8.00403422 0 0 Z "
            transform="translate(381,257)" />
        <path
            d="M0 0 C1.134375 0.020625 2.26875 0.04125 3.4375 0.0625 C5.54470293 5.72885694 6.64704533 11.53339525 7.8203125 17.4453125 C8.14900833 19.0830513 8.14900833 19.0830513 8.48434448 20.75387573 C8.94506781 23.05477749 9.40385949 25.35606677 9.86083984 27.65771484 C10.56163385 31.18314273 11.27063636 34.70685093 11.98046875 38.23046875 C12.42757681 40.46865148 12.8742078 42.70692957 13.3203125 44.9453125 C13.53277618 45.999534 13.74523987 47.05375549 13.96414185 48.1399231 C14.15789398 49.12129242 14.35164612 50.10266174 14.55126953 51.11376953 C14.72288605 51.97503448 14.89450256 52.83629944 15.07131958 53.72366333 C15.4375 56.0625 15.4375 56.0625 15.4375 60.0625 C5.2075 60.0625 -5.0225 60.0625 -15.5625 60.0625 C-14.43721393 49.93492533 -14.43721393 49.93492533 -13.546875 45.46679688 C-13.3499707 44.46966675 -13.15306641 43.47253662 -12.95019531 42.44519043 C-12.73975586 41.40109009 -12.52931641 40.35698975 -12.3125 39.28125 C-12.09432617 38.18655396 -11.87615234 37.09185791 -11.65136719 35.96398926 C-11.1926451 33.66767179 -10.73200303 31.37173711 -10.26953125 29.07617188 C-9.5593213 25.5467031 -8.85741293 22.01565089 -8.15625 18.484375 C-7.70882714 16.24990107 -7.26092764 14.01552251 -6.8125 11.78125 C-6.60206055 10.72095581 -6.39162109 9.66066162 -6.17480469 8.5682373 C-5.97790039 7.59632446 -5.78099609 6.62441162 -5.578125 5.62304688 C-5.40571289 4.7641687 -5.23330078 3.90529053 -5.05566406 3.02038574 C-4.19106449 -0.41211736 -3.81171516 0.0668722 0 0 Z "
            transform="translate(135.5625,136.9375)" />
    </g>
    <style>
        #translator {
            margin: 0.65rem;
        }

        @media (pointer: coarse) {
            #translator {
                margin: 0.55rem;
            }
        }
    </style>
</svg>